<svg width="582" height="134" viewBox="0 0 582 134" fill="none" xmlns="http://www.w3.org/2000/svg">
<path d="M196.609 18.5214C189.401 21.7991 175.133 35.083 175.947 48.5269C176.771 61.9759 185.954 64.5983 185.954 64.5983C188.575 64.7628 188.575 63.1226 188.575 63.1226C188.575 63.1226 183.823 57.7143 185.128 44.7578C186.444 31.7991 196.45 24.75 196.45 24.75C196.45 24.75 196.45 72.3094 196.45 84.934C196.45 97.5592 194.321 102.971 192.836 106.741C205.957 106.577 206.783 82.6373 206.783 82.6373C206.783 82.6373 206.783 34.9212 206.783 26.3909C206.782 17.8588 202.52 18.5214 196.609 18.5214Z" fill="#252525"/>
<path d="M581.269 78.8299C581.269 78.8299 581.269 78.8299 579.34 78.6481C579.078 82.8697 575.653 90.4246 573.008 90.3379C570.373 90.2484 568.976 89.1067 567.824 82.7791C566.686 76.4548 566.953 65.7372 567.133 56.7772C567.299 47.8122 564.401 45.9701 560.091 45.4443C555.795 44.9152 554.382 48.0795 553.064 51.5935C551.749 55.1114 545.514 73.2043 545.514 73.2043C545.514 73.2043 545.07 63.9825 544.986 56.5988C544.9 49.2184 542.351 45.0063 537.169 45.0063C531.985 45.0063 530.753 51.414 530.574 51.8553C530.405 52.2966 525.078 65.2548 525.078 65.2548C525.078 65.2548 525.078 57.5487 525.078 50.822C525.078 44.0992 514.905 45.0841 514.905 45.0841V78.2073C514.905 78.2073 512.941 91.1677 507.363 91.1677C501.786 91.1677 501.63 78.702 501.63 78.702C501.63 78.702 501.63 59.6786 501.63 51.9726C501.63 44.2643 493.922 46.3953 493.264 46.0674C492.607 45.7395 492.113 48.035 491.624 49.3451C483.1 41.4779 473.907 44.9207 469.324 52.952C464.727 60.9882 463.577 74.4349 465.708 84.2754C464.895 90.1816 459.651 90.5051 459.651 90.5051C454.397 90.5051 454.074 82.7991 454.074 82.7991C452.435 70.5024 455.713 57.8733 456.038 52.6262C456.373 47.3792 447.838 47.7066 444.556 50.001C441.275 52.2966 439.974 49.6753 439.974 49.6753C439.974 49.6753 438.321 42.1332 431.928 42.6229C425.539 43.1154 426.352 51.972 427.835 53.4466C429.307 54.9218 429.477 57.8727 428.328 64.1042C427.177 70.3345 417.828 83.1281 417.828 83.1281C417.828 83.1281 417.995 61.3178 417.995 51.9715C417.995 42.6229 407.665 46.5582 407.665 46.5582C407.665 46.5582 407.665 46.5582 407.331 50.0005C396.187 37.5359 387.65 49.1812 387.65 49.1812C376.017 63.1204 380.602 81.653 380.937 83.7857C381.259 85.9145 379.128 91.1666 374.041 91.1666C368.965 91.1666 369.123 81.8164 369.123 81.8164C369.123 81.8164 369.123 57.7127 369.123 50.9865C369.123 44.2637 359.451 45.7395 359.451 45.7395V49.8387C359.451 49.8387 352.4 37.3792 341.088 45.5755C329.765 53.7735 331.081 77.3886 330.911 77.8833C330.758 78.3752 326.652 88.378 322.067 88.378C317.471 88.378 317.64 77.2274 317.64 77.2274V43.117C317.64 43.117 320.427 43.117 327.801 43.117C335.188 43.117 333.872 35.8995 333.872 35.8995H318.62V20.9821C316.73 19.0923 312.717 16.88 310.253 16.88C307.8 16.88 306.16 19.1751 306.16 19.1751V35.2481C306.16 35.2481 300.09 35.2481 296.153 35.2481C292.216 35.2481 292.872 42.7891 292.872 42.7891H306.16C306.16 42.7891 306.16 55.5783 306.16 64.5994C306.16 73.6189 301.24 79.5224 297.626 83.6206C299.768 73.1309 289.761 65.4176 284.015 62.1421C278.282 58.861 283.369 55.0913 285.331 51.8108C287.294 48.5281 287.785 44.4299 281.225 44.4299C274.667 44.4299 270.739 49.0205 269.745 54.1036C268.764 59.1906 272.533 62.4678 272.045 64.4349C271.554 66.4042 260.074 83.2938 257.774 86.4092C255.489 89.5286 254.663 83.2938 254.663 83.2938V50.6597C254.663 50.6597 252.209 46.8878 249.252 45.7417C246.297 44.5928 240.073 44.2665 236.134 51.4784C232.195 58.6987 226.128 71.3239 226.128 71.3239C226.128 71.3239 226.128 57.0551 226.128 50.6591C226.128 44.2659 217.282 45.2498 217.282 45.2498V90.0171C217.282 90.0171 216.946 96.7433 222.693 96.7433L227.277 96.5771C229.084 71.4912 239.749 59.0244 242.205 55.7439C244.668 52.465 244.165 56.238 244.165 56.238C244.165 56.238 244.165 74.4371 244.165 84.1131C244.165 93.7873 250.079 101.168 258.77 92.9697C267.458 84.7684 276.149 66.7288 276.149 66.7288C277.622 70.3368 282.708 71.1594 286.144 77.3897C289.592 83.6211 285.499 88.8671 280.734 89.0311C275.984 89.1978 276.642 84.6067 273.683 84.7684C270.74 84.9346 266.478 89.1978 270.74 93.2988C275.001 97.3964 284.351 96.2502 284.351 96.2502C300.427 96.2502 305.825 77.228 305.825 77.228C306.651 84.4421 307.634 96.2502 318.13 96.2502C328.627 96.2502 331.91 83.4588 331.91 83.4588C331.91 83.4588 335.51 96.2502 346.667 96.2502C357.811 96.2502 361.091 86.7366 361.091 86.7366C362.074 91.823 366.01 96.7388 372.079 96.7388C378.149 96.7388 382.746 88.8671 382.746 88.8671C382.746 88.8671 385.365 96.4137 394.226 96.4137C403.071 96.4137 407.833 88.5431 407.833 88.5431L407.82 92.8397C407.82 92.8397 401.898 99.8409 394.379 107.402C384.757 117.08 379.955 133.802 398.975 133.802C417.996 133.802 417.507 113.137 417.507 113.137C417.507 113.137 418.487 104.612 417.507 90.3423C429.967 80.1783 434.888 61.9759 435.545 59.8437C436.203 57.7054 439.481 56.8867 439.481 56.8867H447.194C447.194 56.8867 443.913 65.5816 443.744 76.7344C443.576 87.8833 448.497 96.9017 455.883 96.9017C463.256 96.9017 467.361 89.1967 467.361 89.1967C467.361 89.1967 469.325 96.2492 479.979 96.2492C490.643 96.2492 494.654 84.9768 494.654 84.9768C494.654 84.9768 497.634 96.3998 505.019 96.3998C512.392 96.3998 515.733 88.1434 515.733 88.1434C515.733 88.1434 515.997 95.2548 515.733 95.2548C515.47 95.2548 527.413 95.2548 527.413 95.2548C527.413 95.2548 527.413 92.9731 527.413 82.2577C527.413 71.5379 531.807 62.9269 534.011 58.8882C536.201 54.8423 537.17 58.5325 537.17 58.5325C537.17 58.5325 537.17 58.8882 537.434 73.9952C537.697 89.1067 541.649 92.4472 545.168 92.4472C548.675 92.4472 548.328 89.4585 549.296 83.9241C550.518 70.653 558.252 57.0368 558.252 57.0368C558.252 57.0368 558.252 73.0275 558.252 76.4554C558.252 79.8804 557.905 96.5726 569.934 96.5726C581.972 96.5732 581.269 78.8299 581.269 78.8299ZM358.791 71.4901C357.808 83.62 353.081 89.5275 349.285 89.5275C345.48 89.5275 341.482 80.9454 342.069 70.6664C342.652 60.3823 346.699 52.4639 350.509 52.4639C356.003 52.4645 359.844 58.5225 358.791 71.4901ZM407.005 71.4901C406.024 83.62 401.296 89.5275 397.49 89.5275C393.696 89.5275 389.697 80.9454 390.284 70.6664C390.869 60.3823 394.916 52.4639 398.723 52.4639C404.217 52.4645 408.059 58.5225 407.005 71.4901ZM400.339 127.226C388.465 128.571 393.43 118.247 396.713 113.772C400.554 108.54 409.207 101.061 409.207 101.061C409.207 101.061 410.705 126.053 400.339 127.226ZM491.792 71.4901C490.81 83.62 486.082 89.5275 482.273 89.5275C478.479 89.5275 474.481 80.9454 475.068 70.6664C475.641 60.3823 479.7 52.4639 483.494 52.4639C489 52.4645 492.842 58.5225 491.792 71.4901Z" fill="#252525"/>
<path d="M95.2585 20.5719C91.0636 20.5719 87.6636 23.973 87.6636 28.1668C87.6636 32.3622 91.0642 35.7628 95.2585 35.7628C99.4523 35.7628 102.853 32.3622 102.853 28.1668C102.853 23.9725 99.4523 20.5719 95.2585 20.5719ZM89.1132 0.0849609H36.1284C16.6203 0.0849609 0.803528 15.9979 0.803528 35.6272V86.7199C0.803528 106.35 16.6198 122.263 36.1284 122.263H89.1132C108.622 122.263 124.437 106.349 124.437 86.7199V35.6277C124.437 15.9985 108.622 0.0849609 89.1132 0.0849609ZM112.884 82.1149C112.884 101.164 104.288 111.438 84.1046 111.438H40.9352C20.9636 111.438 12.1553 101.566 12.1553 82.1149V39.9643C12.1553 18.776 20.8291 10.643 40.9352 10.643H84.1046C102.952 10.643 112.884 19.5786 112.884 39.9643V82.1149ZM62.2815 29.4769C44.8428 29.4769 30.7074 43.6134 30.7074 61.0499C30.7074 78.4864 44.8433 92.6223 62.2815 92.6223C79.718 92.6223 93.8528 78.4864 93.8528 61.0499C93.8528 43.6134 79.718 29.4769 62.2815 29.4769ZM62.2815 81.5918C50.9353 81.5918 41.7384 72.3956 41.7384 61.0499C41.7384 49.7048 50.9353 40.5085 62.2815 40.5085C73.6238 40.5085 82.8201 49.7048 82.8201 61.0499C82.8201 72.3956 73.6238 81.5918 62.2815 81.5918Z" fill="#252525"/>
</svg>
