<svg width="51" height="51" viewBox="0 0 51 51" fill="none" xmlns="http://www.w3.org/2000/svg">
<path fill-rule="evenodd" clip-rule="evenodd" d="M16.0984 24.8381C16.0984 20.2937 19.7937 16.5994 24.337 16.5994C28.8793 16.5994 32.5747 20.2937 32.5747 24.8381C32.5747 29.3824 28.8793 33.0767 24.337 33.0767C19.7937 33.0767 16.0984 29.3824 16.0984 24.8381ZM31.3049 31.0319C32.7748 29.3803 33.673 27.2144 33.673 24.8381C33.673 19.6891 29.4839 15.5 24.337 15.5C19.1902 15.5 15 19.6891 15 24.8381C15 29.987 19.1902 34.1761 24.337 34.1761C26.7134 34.1761 28.8793 33.2738 30.5278 31.808L35.0597 36.3399C35.1685 36.4466 35.3092 36.5 35.4498 36.5C35.5894 36.5 35.73 36.4466 35.8368 36.3399C36.0513 36.1253 36.0513 35.7784 35.8368 35.5638L31.3049 31.0319Z" fill="black" stroke="black" stroke-width="0.2"/>
</svg>
